:SAMPLES-PER-SECOND 30
:FULLY-SPECIFIED
:DEGREES
1
root  78.1111 40.4026 19.1785 178.959 -89.6589 -176.951
RightUpLeg  -1.41672 -6.70616 -3.30362
RightLeg  2.32054 -2.93973 3.47132
RightFoot  -2.56383 0.130074 -1.9999
RightToes  1.74622e-010 0 -3.6325e-017
Spine  -0.097122 -0.00333478 1.47439
Spine1  3.92137 0.319756 -1.46042
HEad  -0.573274 -8.18049 0.225207
LeftShoulder1  7.72601 -12.2474 -42.5562
LeftArm  45.476 -23.7052 -39.4554
LeftForeArm  -163.286 -44.0182 -171.777
LeftHand  -0.244104 0.0205437 5.32207
RightShoulder  0.310848 -1.25514 6.61299
RightArm  -17.2304 -2.25378 1.48587
RightForeArm  3.41823 -0.075694 3.61553
RightHand  -0.538668 0.63057 -10.4293
LeftUpLeg  -1.32096 5.13061 3.09141
LeftLeg  1.68999 10.4042 -4.02969
LeftFoot  -2.37604 -0.100736 1.48339
LeftToes  -2.63786e-011 -1.12672e-010 -2.07835e-011
2
root  78.1094 40.4026 19.1855 178.363 -89.6697 -176.343
RightUpLeg  -1.46013 -6.68777 -3.30146
RightLeg  2.38915 -2.95917 3.43905
RightFoot  -2.56361 0.126975 -1.9517
RightToes  1.74622e-010 0 -3.6325e-017
Spine  -0.154852 -0.0402877 1.50843
Spine1  4.03905 0.244929 -1.46036
HEad  -0.79565 -8.00482 0.216984
LeftShoulder1  7.59893 -11.6442 -43.6564
LeftArm  45.7651 -24.0084 -39.6404
LeftForeArm  -170.951 -40.526 -172.343
LeftHand  -0.244104 0.0205437 5.32207
RightShoulder  0.310835 -1.2376 6.58006
RightArm  -17.3004 -2.12896 1.53967
RightForeArm  3.43247 -0.132856 3.60026
RightHand  -0.538678 0.620937 -10.4267
LeftUpLeg  -1.3223 5.11234 3.0768
LeftLeg  1.66742 10.4401 -4.0256
LeftFoot  -2.36485 -0.102517 1.51108
LeftToes  -2.63786e-011 -1.12672e-010 -2.07835e-011
3
root  78.1033 40.4026 19.1994 176.193 -89.6812 -174.166
RightUpLeg  -1.47246 -6.67244 -3.30231
RightLeg  2.41921 -2.97486 3.41379
RightFoot  -2.56343 0.12461 -1.91491
RightToes  1.74622e-010 0 -3.6325e-017
Spine  -0.225337 -0.0904195 1.59711
Spine1  4.17432 0.204183 -1.50238
HEad  -1.00919 -7.81868 0.178142
LeftShoulder1  7.47235 -10.9819 -44.9382
LeftArm  45.0398 -24.0627 -39.6543
LeftForeArm  178.126 -34.9038 -173.207
LeftHand  -0.244104 0.0205437 5.32207
RightShoulder  0.310795 -1.27912 6.49553
RightArm  -17.3824 -1.98693 1.67792
RightForeArm  3.4116 -0.174238 3.58733
RightHand  -0.537246 0.615917 -10.4827
LeftUpLeg  -1.31771 5.08052 3.05114
LeftLeg  1.64842 10.4814 -4.00444
LeftFoot  -2.38395 -0.103986 1.53392
LeftToes  -2.63786e-011 -1.12672e-010 -2.07835e-011
4
root  78.0945 40.4026 19.2131 174.789 -89.6868 -172.784
RightUpLeg  -1.40321 -6.69135 -3.32761
RightLeg  2.3623 -2.95946 3.43007
RightFoot  -2.5661 0.125031 -1.92146
RightToes  1.74622e-010 0 -3.6325e-017
Spine  -0.21816 -0.126203 1.68509
Spine1  4.21658 0.175734 -1.55548
HEad  -1.05643 -7.70657 0.10973
LeftShoulder1  7.37432 -10.4428 -46.0989
LeftArm  42.3015 -24.3809 -39.6301
LeftForeArm  166.802 -28.2074 -174.164
LeftHand  -0.244104 0.0205437 5.32207
RightShoulder  0.310831 -1.30197 6.4261
RightArm  -17.3629 -1.91695 1.77761
RightForeArm  3.29779 -0.116354 3.61572
RightHand  -0.530942 0.517646 -10.518
LeftUpLeg  -1.27868 5.05531 3.03176
LeftLeg  1.6401 10.4771 -3.98236
LeftFoot  -2.43503 -0.0957041 1.41892
LeftToes  -2.63786e-011 -1.12672e-010 -2.07835e-011
5
root  78.088 40.4026 19.2227 175.981 -89.6784 -174.005
RightUpLeg  -1.35322 -6.72711 -3.36655
RightLeg  2.34688 -2.91717 3.4562
RightFoot  -2.58071 0.125653 -1.93112
RightToes  1.74622e-010 0 -3.6325e-017
Spine  -0.144221 -0.147114 1.73197
Spine1  4.21169 0.159005 -1.58489
HEad  -1.14017 -7.67702 0.0806891
LeftShoulder1  7.28314 -9.97173 -47.1404
LeftArm  36.3519 -25.2879 -39.68
LeftForeArm  153.855 -19.9367 -175.096
LeftHand  -0.244104 0.0205437 5.32207
RightShoulder  0.310225 -1.29249 6.44046
RightArm  -17.2324 -1.88202 1.75645
RightForeArm  3.12887 0.0150154 3.68807
RightHand  -0.508875 0.306806 -10.439
LeftUpLeg  -1.23688 5.03894 3.01598
LeftLeg  1.64154 10.4724 -3.97078
LeftFoot  -2.48436 -0.0822364 1.25559
LeftToes  -2.63786e-011 -1.12672e-010 -2.07835e-011
